<svg width="34" height="33" viewBox="0 0 34 33" fill="none" xmlns="http://www.w3.org/2000/svg">
<path fill-rule="evenodd" clip-rule="evenodd" d="M1.21709 1.23133C1.71177 0.730459 2.32336 0.364271 2.9951 0.166754C3.66684 -0.0307618 4.37697 -0.053204 5.05956 0.10151C5.74215 0.256225 6.3751 0.583082 6.89965 1.05175C7.42419 1.52041 7.82335 2.11569 8.06006 2.78234C10.0973 1.95849 12.3231 1.73519 14.4804 2.13823C16.6376 2.54128 18.6382 3.55423 20.2512 5.06006L20.595 5.39314L33.5136 18.4791C33.7996 18.7688 33.9713 19.1542 33.9967 19.563C34.0221 19.9718 33.8993 20.376 33.6514 20.6996L33.5136 20.8578L29.9908 24.4257C29.7419 24.6779 29.4204 24.8434 29.0726 24.8984C28.7248 24.9534 28.3688 24.8951 28.0558 24.7319L27.8715 24.6192L21.9187 20.4473C20.2174 22.9452 17.6297 24.6814 14.6952 25.2939C11.7607 25.9063 8.70608 25.3478 6.16832 23.7347C3.63056 22.1216 1.80561 19.5785 1.07407 16.6358C0.342528 13.6931 0.76088 10.5779 2.24187 7.94002C1.66211 7.63574 1.16138 7.19726 0.780326 6.66019C0.399277 6.12313 0.148659 5.50261 0.0488214 4.84903C-0.0510158 4.19546 0.00274306 3.52724 0.205733 2.89866C0.408723 2.27007 0.75522 1.69884 1.21709 1.23133ZM6.50212 7.77348C5.64717 8.64121 4.98983 9.68774 4.57612 10.8398C4.16241 11.9918 4.00233 13.2215 4.1071 14.4428C4.21187 15.6641 4.57895 16.8474 5.18264 17.9099C5.78632 18.9725 6.61202 19.8885 7.60193 20.5939C8.59183 21.2993 9.72201 21.777 10.9133 21.9935C12.1046 22.2101 13.3283 22.1603 14.4986 21.8477C15.669 21.535 16.7577 20.967 17.6885 20.1835C18.6193 19.3999 19.3698 18.4198 19.8874 17.3116C19.9903 17.0908 20.1393 16.8953 20.3243 16.7387C20.5092 16.5821 20.7256 16.4682 20.9584 16.4048C21.1912 16.3414 21.4348 16.3301 21.6724 16.3717C21.9099 16.4132 22.1357 16.5067 22.334 16.6455L28.6222 21.0529L29.9908 19.6684L18.2464 7.77348C16.689 6.19613 14.5768 5.30998 12.3743 5.30998C10.1718 5.30998 8.05953 6.19613 6.50212 7.77348ZM15.8963 10.1521C16.3652 10.6193 16.7382 11.1759 16.9936 11.7898C17.2491 12.4036 17.3821 13.0627 17.3848 13.7289C17.3876 14.3951 17.2601 15.0552 17.0097 15.6712C16.7593 16.2873 16.3909 16.847 15.9259 17.3181C15.4608 17.7892 14.9083 18.1624 14.3001 18.4162C13.692 18.67 13.0402 18.7993 12.3824 18.7966C11.7247 18.794 11.074 18.6595 10.4678 18.4009C9.86163 18.1422 9.31201 17.7646 8.85065 17.2898C7.91613 16.3433 7.39112 15.0595 7.39112 13.721C7.39112 12.3824 7.91613 11.0986 8.85065 10.1521C9.78518 9.20562 11.0527 8.67388 12.3743 8.67388C13.6959 8.67388 14.9634 9.20562 15.8979 10.1521M11.2008 12.5325C11.0422 12.6876 10.9157 12.8733 10.8286 13.0785C10.7416 13.2837 10.6958 13.5045 10.6939 13.7279C10.6919 13.9512 10.734 14.1727 10.8175 14.3795C10.901 14.5862 11.0243 14.774 11.1803 14.932C11.3362 15.0899 11.5217 15.2148 11.7258 15.2994C11.9299 15.384 12.1486 15.4266 12.3691 15.4246C12.5897 15.4227 12.8076 15.3763 13.0103 15.2881C13.2129 15.1999 13.3962 15.0718 13.5494 14.9111C13.861 14.5957 14.0362 14.1678 14.0364 13.7215C14.0365 13.2753 13.8616 12.8473 13.5502 12.5316C13.2388 12.216 12.8163 12.0386 12.3757 12.0384C11.9351 12.0382 11.5125 12.2154 11.2008 12.5308M4.74155 3.60831C4.66494 3.52797 4.57331 3.4639 4.47199 3.41981C4.37067 3.37573 4.2617 3.35253 4.15143 3.35156C4.04116 3.35059 3.93181 3.37187 3.82975 3.41416C3.72769 3.45645 3.63496 3.51891 3.55699 3.59788C3.47902 3.67686 3.41735 3.77077 3.3756 3.87414C3.33384 3.9775 3.31283 4.08826 3.31379 4.19994C3.31474 4.31163 3.33765 4.422 3.38118 4.52461C3.4247 4.62723 3.48797 4.72004 3.56728 4.79763C3.72391 4.95085 3.93369 5.03563 4.15143 5.03371C4.36917 5.0318 4.57746 4.94334 4.73143 4.78739C4.88541 4.63144 4.97275 4.42048 4.97464 4.19994C4.97653 3.97941 4.89283 3.76694 4.74155 3.60831Z" fill="#808080"/>
</svg>
