<svg width="20" height="14" viewBox="0 0 20 14" fill="none" xmlns="http://www.w3.org/2000/svg">
<path d="M12.9995 7C12.9995 7.79565 12.6834 8.55871 12.1208 9.12132C11.5582 9.68393 10.7951 10 9.99945 10C9.2038 10 8.44074 9.68393 7.87813 9.12132C7.31552 8.55871 6.99945 7.79565 6.99945 7C6.99945 6.20435 7.31552 5.44129 7.87813 4.87868C8.44074 4.31607 9.2038 4 9.99945 4C10.7951 4 11.5582 4.31607 12.1208 4.87868C12.6834 5.44129 12.9995 6.20435 12.9995 7Z" fill="#808080"/>
<path d="M19.8935 6.553C17.7355 2.236 13.9035 0 9.99947 0C6.09547 0 2.26347 2.236 0.105466 6.553C0.0361074 6.6918 0 6.84484 0 7C0 7.15516 0.0361074 7.3082 0.105466 7.447C2.26347 11.764 6.09547 14 9.99947 14C13.9035 14 17.7355 11.764 19.8935 7.447C19.9628 7.3082 19.9989 7.15516 19.9989 7C19.9989 6.84484 19.9628 6.6918 19.8935 6.553ZM9.99947 12C7.03047 12 3.99747 10.38 2.12947 7C3.99747 3.62 7.02947 2 9.99947 2C12.9695 2 16.0015 3.62 17.8695 7C16.0015 10.38 12.9685 12 9.99947 12Z" fill="#808080"/>
</svg>
