<svg width="16" height="16" viewBox="0 0 16 16" fill="none" xmlns="http://www.w3.org/2000/svg">
<path opacity="0.5" d="M5.85604 14.6666C4.7327 14.1653 3.8047 13.384 3.1947 12.338M9.88337 1.45732C11.0014 1.13932 12.1554 1.44198 12.9614 2.26465" stroke="white" stroke-width="1.5" stroke-linecap="round"/>
<path d="M6.94402 6.35065C7.01085 6.46522 7.12046 6.54856 7.24874 6.58231C7.37701 6.61607 7.51344 6.59749 7.62802 6.53065C7.74259 6.46382 7.82592 6.3542 7.85968 6.22593C7.89343 6.09766 7.87485 5.96122 7.80802 5.84665L6.94402 6.35065ZM5.02535 8.08865C5.05844 8.14538 5.10239 8.19504 5.15467 8.23479C5.20695 8.27454 5.26656 8.3036 5.33007 8.32031C5.39359 8.33703 5.45977 8.34107 5.52485 8.3322C5.58993 8.32334 5.65262 8.30174 5.70935 8.26865C5.76608 8.23556 5.81574 8.19161 5.85549 8.13933C5.89524 8.08705 5.9243 8.02745 5.94101 7.96393C5.95773 7.90042 5.96177 7.83423 5.9529 7.76915C5.94404 7.70408 5.92244 7.64138 5.88935 7.58465L5.02535 8.08865ZM10.698 6.76598L10.9467 7.19998C11.004 7.16718 11.0542 7.12336 11.0945 7.07104C11.1347 7.01873 11.1642 6.95896 11.1813 6.89518C11.1983 6.8314 11.2026 6.76488 11.1938 6.69946C11.185 6.63403 11.1633 6.57099 11.13 6.51398L10.698 6.76598ZM9.18935 10.2C9.22244 10.2567 9.26639 10.3064 9.31867 10.3461C9.37095 10.3859 9.43056 10.4149 9.49407 10.4316C9.55759 10.4484 9.62377 10.4524 9.68885 10.4435C9.75393 10.4347 9.81662 10.4131 9.87335 10.38C9.93008 10.3469 9.97974 10.3029 10.0195 10.2507C10.0592 10.1984 10.0883 10.1388 10.105 10.0753C10.1217 10.0117 10.1258 9.94556 10.1169 9.88049C10.108 9.81541 10.0864 9.75272 10.0534 9.69598L9.18935 10.2ZM2.92202 6.01198C3.34402 5.77065 3.76002 5.91865 3.90268 6.16332L4.76668 5.65998C4.28935 4.84132 3.21802 4.69065 2.42535 5.14332L2.92202 6.01198ZM2.42535 5.14332C1.63202 5.59732 1.22335 6.59798 1.70335 7.42065L2.56735 6.91665C2.42735 6.67665 2.50068 6.25265 2.92202 6.01198L2.42535 5.14332ZM4.70002 2.49998L5.26135 3.46265L6.12535 2.95865L5.56335 1.99665L4.70002 2.49998ZM5.26135 3.46265L6.94468 6.34998L7.80868 5.84665L6.12535 2.95865L5.26135 3.46265ZM5.89002 7.58465L4.76668 5.65998L3.90268 6.16332L5.02535 8.08865L5.89002 7.58465ZM4.76668 5.65998L3.36335 3.25332L2.50002 3.75732L3.90268 6.16398L4.76668 5.65998ZM3.71802 2.34865C4.14068 2.10732 4.55668 2.25532 4.69935 2.49998L5.56335 1.99665C5.08602 1.17798 4.01468 1.02665 3.22202 1.47998L3.71802 2.34865ZM3.22202 1.47998C2.42868 1.93398 2.02002 2.93465 2.50002 3.75732L3.36335 3.25332C3.22335 3.01332 3.29735 2.58932 3.71802 2.34865L3.22202 1.47998ZM7.46002 2.20532L9.14402 5.09332L10.008 4.58932L8.32402 1.70198L7.46002 2.20532ZM9.14402 5.09332L10.2667 7.01798L11.13 6.51398L10.008 4.58932L9.14402 5.09332ZM6.47935 2.05332C6.90135 1.81265 7.31735 1.96065 7.46002 2.20532L8.32402 1.70198C7.84668 0.883318 6.77535 0.732651 5.98268 1.18598L6.47935 2.05332ZM5.98268 1.18598C5.18935 1.63932 4.78068 2.64065 5.26068 3.46332L6.12468 2.95932C5.98468 2.71932 6.05802 2.29532 6.47935 2.05465L5.98268 1.18598ZM11.3433 3.83598L13.0274 6.72398L13.8914 6.21932L12.2067 3.33332L11.3433 3.83598ZM10.3627 3.68465C10.7847 3.44332 11.2007 3.59065 11.3433 3.83598L12.2074 3.33265C11.73 2.51465 10.6587 2.36398 9.86602 2.81665L10.3627 3.68465ZM9.86602 2.81665C9.07268 3.26998 8.66402 4.27065 9.14402 5.09332L10.008 4.58998C9.86802 4.34998 9.94135 3.92532 10.3627 3.68465L9.86602 2.81665ZM1.70335 7.42065L4.22868 11.752L5.09202 11.248L2.56735 6.91665L1.70335 7.42065ZM11.0567 12.4013C8.81202 13.684 6.16468 13.0873 5.09202 11.248L4.22868 11.752C5.63602 14.1653 8.93868 14.764 11.5534 13.2693L11.0567 12.4013ZM13.0274 6.72332C14.0974 8.55865 13.3007 11.1193 11.0567 12.4013L11.5534 13.2693C14.1694 11.7747 15.3007 8.63665 13.8914 6.21932L13.0274 6.72332ZM10.0534 9.69665C9.60335 8.92398 9.91802 7.78798 10.9467 7.19998L10.45 6.33198C9.04868 7.13265 8.40002 8.84532 9.18935 10.2L10.0534 9.69665Z" fill="white"/>
</svg>
